<?xml version="1.0" encoding="UTF-8"?>
<svg version="1.1" viewBox="0 0 1024 1024" width="24" height="24" xmlns="http://www.w3.org/2000/svg">
<path transform="translate(0)" d="m0 0h1024v1024h-1024z" fill="#FEFEFE"/>
<path transform="translate(499,246)" d="m0 0h39l22 3 30 7 22 8 18 8 15 9 7 4 16 11 13 11 8 7 7 6 6 7 5 5 12 15 10 15 8 13 10 21 8 22 6 22 3 18 2 22v22l-2 25-5 26-7 24-9 21-8 16-11 18-14 18-11 12-7 8-13 12-13 10-20 13-14 8-21 9-19 7-24 6-19 3-10 1h-34l-26-3-20-4-20-6-20-8-19-9-21-13-14-10-13-11-8-7-7-8-5-5-8-9-6-7-10-15-9-16-9-19-9-25-7-28-3-24v-39l3-25 6-25 8-24 8-18 6-10 6-11 5-8h2l2-5 14-17 5-6h2v-2h2l1-3h2l1-3 8-7 13-11 17-12 13-8 21-11 26-10 27-7z" fill="#FEFEFE"/>
<path transform="translate(499,246)" d="m0 0h39l22 3 30 7 22 8 18 8 15 9 7 4 16 11 13 11 8 7 7 6 6 7 5 5 12 15 10 15 8 13 10 21 8 22 6 22 3 18 2 22v22l-2 25-5 26-7 24-9 21-8 16-11 18-14 18-11 12-7 8-13 12-13 10-20 13-14 8-21 9-19 7-24 6-19 3-10 1h-34l-26-3-20-4-20-6-20-8-19-9-21-13-14-10-13-11-8-7-7-8-5-5-8-9-6-7-10-15-9-16-9-19-9-25-7-28-3-24v-39l3-25 6-25 8-24 8-18 6-10 6-11 5-8h2l2-5 14-17 5-6h2v-2h2l1-3h2l1-3 8-7 13-11 17-12 13-8 21-11 26-10 27-7zm5 22-27 3-18 4-24 8-18 8-16 9-15 10-10 8-14 12-15 15-11 14-10 15-9 16-8 18-8 24-5 25-2 15v36l3 24 5 22 7 20 8 20 6 11h3v-80h130l26-1-1 17-139 1v81h-11l1 5 10 13 5 6h4l1-6v-74h66l1 15-19-1h-34v28h53v-19h160v-51h-10v-13l73-1v65h40v-30l3 1 10-1v30l27 1 3-5 7-18 6-21 5-30 1-17v-12l-2-27-3-18-6-22-8-21-11-22-11-16-7-9-12-14-10-10h-2l-2-4-17-13-16-11-22-12-20-8-18-6-20-4-15-2-14-1z" fill="#2F343F"/>
<path transform="translate(496,606)" d="m0 0h218l-1 5-8 11-7 9-9 10-7 8-8 8h-2l-1 3-10 8-15 11-15 9-15 8-20 8-16 5-21 5-23 3h-32l-24-3-25-6-21-7-25-12-15-9-13-9-11-9-4-4v-34l1-1h65v-16z" fill="#FEFEFE"/>
<path transform="translate(482,380)" d="m0 0h6l58 26 31 14 15 6 15 7 27 12 13 7v18l-9-2-27-12-29-13-12-5-38-17-34-15-12-5-6 2-44 22-23 11-27 14-42 21h-2v-20l8-5 52-26h2v-33l1-1h18v24l33-17z" fill="#484F59"/>
<path transform="translate(577,253)" d="m0 0 15 4 12 4 12 5 14 6 15 9 7 4 16 11 13 11 8 7 7 6 6 7 5 5 12 15 10 15 8 13 10 21 8 22 6 22 3 18 2 22v22h-1l-1-14-1-2-2-17-1-5-3-1-3-10v-3h-4l-1-2-1-10-4-4-7-1-1-5-2-1-6-17-7-16-10-19-14-20-10-11-7-8-8-7-5-5-14-11-16-11-22-12-20-8-18-6-14-3 2-1-2-7 4-11 1 3 6-1v-2z" fill="#5E6670"/>
<path transform="translate(735,427)" d="m0 0 3 2 1 3 6 1 4 5 1 12h4l4 13 2 1 1-5h1v13l2 14 1 2v29l-3 22-6 25-6 18-8 18-8 16-12 19-13 16-9 10-7 8-4-2v-2h2l1-5 6-11 3-4v-6l-5-1v8h-3l-5 2v3l-4-4 6-8 10-11 9-13 4-5-1-3-18-2v-3h2v2l8-2-7-2-1-3 2-5h-3v-2h27l5-11 8-24 5-24 2-14 1-17v-12l-2-27-3-18-3-11z" fill="#49505A"/>
<path transform="translate(499,246)" d="m0 0h39l22 3 17 4-3 1v2l-6 1-1-1-3 10 1 1v5h-8l-15-2-14-1h-24l-27 3-18 4-24 8-18 8-16 9-15 10-10 8-14 12-12 12-2-1 2-6 2-1 2-6h2l2-5 5-2 3-1 2-4 3-1-2-4h2l-1-8-6-2 2-3h2l1-4 13-9 13-8 21-11 26-10 27-7z" fill="#484F59"/>
<path transform="translate(511,493)" d="m0 0h203l1 1v16l-1 1h-188v71l-2 2h-9l-4-1z" fill="#49505A"/>
<path transform="translate(405,386)" d="m0 0h18v24l6-3 2 1-3 1v2l6-4 6-1h4v9h2v2l2-2h3l-1 3-25 12-19 10-62 31h-2v-20l8-5 52-26h2v-33z" fill="#313641"/>
<path transform="translate(413,771)" d="m0 0 6 2 2 3v57l-2 2-4-1-8-7-30-30-1 35-2 3h-9l-3-3v-58l2-2h6l17 17 5 4 5 6 8 8h2l1-34z" fill="#303540"/>
<path transform="translate(620,772)" d="m0 0 7 1 35 35 1-32 1-4h10l2 2v60l-4 1-8-6-17-17-7-8-7-7h-1l-1 37-1 1h-9l-3-3v-57z" fill="#303540"/>
<path transform="translate(442,772)" d="m0 0h46l1 2v8l-1 2h-35l1 13 26 1 1 1v10l-1 1h-27v13h34l2 1v10l-1 1h-45l-3-3v-57z" fill="#2E333E"/>
<path transform="translate(512,771)" d="m0 0h6l7 6 9 11 2 3 4-2 9-11 3-4h2v-2l2-1h7l5 1-1 4h-2l-2 5-13 15-3 4 1 6 12 13 10 13v2l-2 1h-11l-8-8-9-11-4-2-18 21h-11l-2-1 2-5 11-14 9-10 1-3-14-17-8-10v-3z" fill="#313641"/>
<path transform="translate(593,539)" d="m0 0h35v51h-35z" fill="#FEFEFE"/>
<path transform="translate(520,494)" d="m0 0h24l8 1v1l-9 1-1 1h-5l-1 7h16v1l-10 1v1l-16 1h42l46 1v1h-88v71l-2 2h-9l-4-1v-87l1-1z" fill="#313641"/>
<path transform="translate(421,438)" d="m0 0h2v74h-19v-65l7-4z" fill="#2F343F"/>
<path transform="translate(436,458)" d="m0 0h24v54h-24z" fill="#2E333E"/>
<path transform="translate(612,525)" d="m0 0h30v62l-2-1v-7l-2-3-1-8h-2v-2h-3l-3-6h-1v-21h-32l1-3 1-1 6-1 4-6 4-2z" fill="#484F59"/>
<path transform="translate(375,469)" d="m0 0h1v43h-24v-30l22-12z" fill="#2E333E"/>
<path transform="translate(587,772)" d="m0 0h8l3 4v56l-1 2-9 1-4-3v-46l1-13z" fill="#343944"/>
<path transform="translate(682,560)" d="m0 0h13v30h-3l-1 2-1-3h-3l-1-3-4-1z" fill="#49505A"/>
<path transform="translate(367,317)" d="m0 0 1 3 6-1-6 7-10 9-8 8-2-1 2-6 2-1 2-6h2l2-5 5-2 3-1z" fill="#434A54"/>
<path transform="translate(694,635)" d="m0 0 2 1v10h-3l-5 2v3l-4-4 6-8z" fill="#414751"/>
<path transform="translate(735,427)" d="m0 0 3 2v3l2 1 2 3-1 8-3-1-3-11z" fill="#525963"/>
<path transform="translate(457,409)" d="m0 0 5 1v2l-11 5v-2l-3-1 2-3z" fill="#3F4550"/>
<path transform="translate(739,446)" d="m0 0 5 2v2l4 1-2 5h-2v7h-1l-2-10h-1z" fill="#5E6670"/>
<path transform="translate(581,255)" d="m0 0 9 1 14 5 1 2-7-1h-3l-4 1 1-3-8-2z" fill="#4E555F"/>
<path transform="translate(762,472)" d="m0 0 2 3v5h2v22h-1l-1-14-1-2z" fill="#606872"/>
<path transform="translate(367,317)" d="m0 0 1 3 6-1-5 6-4-1z" fill="#3E444F"/>
<path transform="translate(689,640)" d="m0 0 1 3v2l2 2-4 1v3l-4-4z" fill="#474E58"/>
<path transform="translate(701,626)" d="m0 0h3l1 7h-2l-1 3-1-2v-3l-2-2z" fill="#343944"/>
<path transform="translate(421,389)" d="m0 0h1v11l-3-1-1-9 2 1z" fill="#49505A"/>
<path transform="translate(763,461)" d="m0 0h1l1 7v12h-1l-2-10z" fill="#4D555F"/>
<path transform="translate(434,404)" d="m0 0h3l1 4-6 1-4 2v-2z" fill="#434A54"/>
</svg>
